<?xml version="1.0" standalone="no"?>
<!DOCTYPE svg PUBLIC "-//W3C//DTD SVG 20010904//EN"
 "http://www.w3.org/TR/2001/REC-SVG-20010904/DTD/svg10.dtd">
<svg version="1.0" xmlns="http://www.w3.org/2000/svg"
 width="255.000000pt" height="282.000000pt" viewBox="0 0 255.000000 282.000000"
 preserveAspectRatio="xMidYMid meet">

<g transform="translate(0.000000,282.000000) scale(0.100000,-0.100000)"
fill="#000000" stroke="none">
<path d="M1055 2705 c-320 -37 -596 -136 -849 -305 l-109 -73 6 -216 c14 -478
94 -834 262 -1165 96 -189 212 -344 374 -503 83 -80 85 -82 85 -132 1 -61 28
-101 81 -119 138 -46 227 141 103 218 -32 20 -73 22 -123 6 -26 -9 -125 80
-230 205 -315 376 -469 840 -491 1481 l-6 193 69 47 c222 150 505 257 773 293
135 19 405 19 540 0 265 -35 530 -134 749 -278 l93 -62 -7 -195 c-28 -806
-270 -1354 -773 -1749 -73 -58 -249 -171 -265 -171 -35 0 -37 20 -37 306 l0
283 48 6 c300 40 547 209 671 461 47 94 79 207 88 307 5 58 4 67 -11 67 -12 0
-16 9 -16 39 0 60 -29 186 -60 263 -40 97 -85 169 -155 247 -33 36 -65 75 -71
86 -23 42 -74 46 -74 6 0 -23 36 -52 55 -45 16 6 121 -109 164 -180 51 -86 90
-191 106 -290 19 -113 19 -126 1 -126 -10 0 -17 -16 -21 -47 -29 -225 -90
-352 -235 -494 -144 -140 -316 -209 -520 -209 -204 0 -376 69 -520 209 -145
142 -206 269 -235 494 -4 31 -11 47 -21 47 -18 0 -18 23 1 132 17 97 56 201
106 284 41 66 147 186 160 179 4 -3 20 2 34 11 30 19 31 57 2 62 -20 4 -57
-24 -57 -43 0 -6 -16 -27 -36 -46 -83 -79 -150 -183 -194 -301 -25 -67 -50
-187 -50 -239 0 -30 -4 -39 -16 -39 -15 0 -16 -9 -11 -67 35 -403 341 -712
760 -768 l47 -6 0 -345 c0 -287 2 -346 14 -350 27 -10 226 106 375 221 87 67
273 245 334 320 109 135 247 380 310 550 100 268 153 579 164 951 l6 211 -109
73 c-369 246 -831 357 -1279 305z m-85 -2369 c6 -8 10 -25 8 -38 -2 -18 -9
-23 -33 -23 -24 0 -31 5 -33 23 -6 42 33 68 58 38z"/>
</g>
</svg>
